<svg xmlns="http://www.w3.org/2000/svg" width="276.667" height="237.5" viewBox="0 0 276.667 237.5"><path fill="#4285F4" d="M63.072 57.625h37.65v122.248h-37.65z"/><path fill="#00BFA5" d="M175.721 57.625h37.875v122.248h-37.875z"/><path fill="#1CE9B6" d="M175.946 179.873h37.65l-56.32-103.728h-37.651z"/><path fill="#4FC3F7" d="M100.721 179.873h-37.65l56.32-103.728h37.651z"/><path fill="#4285F4" d="M40.933 198.424v-158.917h41.21v-24.081h-55.833c-5.224 0-9.499 4.276-9.499 9.5v186.648c0 5.225 4.275 10.5 9.499 10.5h55.833v-23.65h-41.21z"/><path fill="#00BFA5" d="M235.735 198.424v-158.917h-41.211v-24.081h55.834c5.223 0 9.499 4.276 9.499 9.5v186.648c0 5.225-4.276 10.5-9.499 10.5h-55.834v-23.65h41.211z"/></svg>