<svg xmlns="http://www.w3.org/2000/svg" width="947.5" height="301.667" viewBox="0 0 947.5 301.667"><path d="M449.909 137.96h-4.137l-15.826-55.597c-1.312-4.567-2.297-8.312-2.953-11.238-.527 2.859-1.277 6.146-2.242 9.858-.971 3.712-6.27 22.706-15.898 56.977h-4.24l-19.816-72.06h5.275l12.621 46.43c.49 1.872.951 3.606 1.377 5.201.426 1.593.814 3.088 1.16 4.484.342 1.396.656 2.743.934 4.043.283 1.297.537 2.603.764 3.918.791-4.469 2.469-11.255 5.029-20.358l12.32-43.718h5.572l14.441 50.177c1.674 5.783 2.875 10.448 3.598 13.996.424-2.364.975-4.88 1.65-7.54.674-2.66 5.74-21.539 15.205-56.633h5.076l-19.91 72.06zm69.65-26.862c0 8.742-2.117 15.568-6.355 20.48-4.24 4.912-10.088 7.367-17.549 7.367-4.697 0-8.84-1.133-12.418-3.4-3.584-2.268-6.33-5.521-8.234-9.76-1.904-4.236-2.857-9.133-2.857-14.688 0-8.739 2.117-15.549 6.357-20.429s10.055-7.321 17.447-7.321c7.359 0 13.139 2.474 17.328 7.418 4.191 4.948 6.281 11.725 6.281 20.333zm-42.287 0c0 7.362 1.619 13.104 4.855 17.226 3.236 4.126 7.812 6.186 13.725 6.186 5.914 0 10.49-2.06 13.727-6.186 3.236-4.121 4.854-9.863 4.854-17.226 0-7.392-1.631-13.127-4.9-17.202-3.273-4.073-7.863-6.111-13.775-6.111-5.918 0-10.477 2.029-13.68 6.088-3.206 4.059-4.806 9.801-4.806 17.225zm119.012 26.862v-35.142c0-5.225-1.021-9.036-3.055-11.436-2.039-2.399-5.16-3.599-9.367-3.599-5.488 0-9.547 1.512-12.172 4.535-2.631 3.023-3.943 7.771-3.943 14.243v31.397h-4.98v-36.621c0-9.036-4.141-13.555-12.422-13.555-5.617 0-9.707 1.637-12.27 4.905-2.564 3.271-3.846 8.501-3.846 15.697v29.573h-4.877v-53.573h4.039l1.037 7.344h.295c1.48-2.661 3.578-4.723 6.307-6.186 2.727-1.461 5.736-2.194 9.02-2.194 8.445 0 13.869 3.172 16.268 9.515h.195c1.742-3.056 4.082-5.406 7.025-7.05 2.941-1.642 6.283-2.465 10.029-2.465 5.848 0 10.238 1.563 13.16 4.684 2.922 3.123 4.389 8.083 4.389 14.884v35.045h-4.832zm39.777.985c-7.791 0-13.859-2.397-18.211-7.196-4.355-4.796-6.531-11.516-6.531-20.158 0-8.544 2.104-15.386 6.311-20.529 4.201-5.141 9.869-7.714 17.002-7.714 6.307 0 11.285 2.203 14.934 6.606 3.646 4.404 5.473 10.384 5.473 17.94v3.943h-38.592c.064 7.359 1.779 12.979 5.148 16.855 3.367 3.879 8.188 5.815 14.467 5.815 3.055 0 5.742-.212 8.059-.64 2.314-.426 5.25-1.348 8.797-2.76v4.436c-3.023 1.315-5.816 2.21-8.377 2.686-2.568.478-5.392.716-8.48.716zm-1.43-51.258c-5.158 0-9.301 1.699-12.422 5.102-3.119 3.4-4.945 8.306-5.469 14.713h33.119c0-6.211-1.344-11.065-4.039-14.564-2.695-3.501-6.427-5.251-11.189-5.251zm68.514 50.273v-34.749c0-5.388-1.131-9.306-3.402-11.754-2.266-2.448-5.783-3.673-10.545-3.673-6.406 0-11.1 1.62-14.072 4.856s-4.461 8.485-4.461 15.746v29.573h-4.877v-53.575h4.137l.939 7.344h.295c3.48-5.585 9.676-8.38 18.58-8.38 12.158 0 18.238 6.523 18.238 19.567v35.045h-4.832zm-291.875 100.942h-5.076v-67.328h-23.416v-4.731h51.902v4.731h-23.41v67.328zm50.475.986c-7.791 0-13.861-2.397-18.211-7.196-4.355-4.796-6.533-11.516-6.533-20.159 0-8.543 2.104-15.386 6.311-20.528 4.203-5.141 9.871-7.714 17.004-7.714 6.307 0 11.285 2.203 14.934 6.606 3.646 4.403 5.473 10.384 5.473 17.939v3.944h-38.594c.064 7.359 1.781 12.979 5.15 16.855 3.365 3.879 8.188 5.815 14.467 5.815 3.055 0 5.74-.212 8.057-.64 2.316-.426 5.252-1.348 8.799-2.761v4.437c-3.023 1.315-5.816 2.21-8.377 2.686-2.568.477-5.392.716-8.48.716zm-1.43-51.259c-5.158 0-9.301 1.699-12.422 5.102-3.121 3.4-4.947 8.306-5.469 14.713h33.119c0-6.211-1.346-11.065-4.041-14.564-2.695-3.501-6.425-5.251-11.187-5.251zm52.547 51.259c-7.662 0-13.658-2.414-17.994-7.245s-6.504-11.566-6.504-20.207c0-8.872 2.252-15.781 6.754-20.728 4.498-4.944 10.66-7.418 18.482-7.418 4.633 0 9.066.807 13.307 2.416l-1.332 4.339c-4.633-1.545-8.66-2.319-12.076-2.319-6.568 0-11.549 2.03-14.932 6.089-3.385 4.06-5.076 9.898-5.076 17.521 0 7.229 1.691 12.89 5.076 16.98 3.383 4.092 8.113 6.135 14.191 6.135 4.865 0 9.385-.869 13.557-2.611v4.535c-3.418 1.676-7.902 2.513-13.453 2.513zm61.902-.986v-34.749c0-5.389-1.133-9.307-3.398-11.754-2.27-2.448-5.783-3.674-10.551-3.674-6.406 0-11.094 1.621-14.072 4.857-2.973 3.235-4.455 8.485-4.455 15.746v29.573h-4.883v-76.691h4.883v24.397l-.25 6.85h.346c2.002-3.22 4.535-5.553 7.592-6.997 3.055-1.447 6.852-2.171 11.387-2.171 12.154 0 18.232 6.523 18.232 19.567v35.045h-4.831zm83.057 0v-35.142c0-5.224-1.016-9.035-3.055-11.435-2.035-2.399-5.16-3.6-9.361-3.6-5.488 0-9.547 1.513-12.178 4.536-2.627 3.023-3.943 7.771-3.943 14.243v31.397h-4.975v-36.621c0-9.036-4.143-13.556-12.422-13.556-5.621 0-9.709 1.637-12.275 4.905-2.561 3.271-3.842 8.502-3.842 15.698v29.573h-4.881v-53.576h4.041l1.035 7.344h.295c1.48-2.661 3.584-4.723 6.311-6.187 2.729-1.46 5.732-2.193 9.02-2.193 8.447 0 13.865 3.172 16.264 9.515h.199c1.738-3.056 4.082-5.407 7.023-7.051 2.939-1.641 6.281-2.464 10.031-2.464 5.848 0 10.236 1.562 13.158 4.684 2.926 3.123 4.387 8.083 4.387 14.884v35.045h-4.832zm50.674 0l-1.23-8.479h-.396c-2.695 3.451-5.461 5.893-8.303 7.32-2.844 1.429-6.205 2.144-10.078 2.144-5.262 0-9.354-1.346-12.275-4.041-2.926-2.692-4.387-6.424-4.387-11.188 0-5.227 2.178-9.283 6.533-12.175 4.35-2.893 10.65-4.42 18.902-4.584l10.199-.296v-3.549c0-5.092-1.035-8.938-3.102-11.534-2.072-2.596-5.41-3.893-10.01-3.893-4.961 0-10.102 1.38-15.428 4.14l-1.82-4.239c5.881-2.76 11.695-4.14 17.447-4.14 5.881 0 10.277 1.528 13.186 4.584 2.906 3.056 4.359 7.819 4.359 14.294v35.635h-3.597zm-19.713-3.451c5.719 0 10.227-1.634 13.527-4.902 3.301-3.271 4.955-7.813 4.955-13.629v-5.275l-9.365.396c-7.527.363-12.889 1.537-16.094 3.525-3.203 1.988-4.803 5.085-4.803 9.29 0 3.352 1.027 5.957 3.078 7.812 2.053 1.856 4.954 2.783 8.702 2.783zm41.404-20.059l27.355-30.065h5.912l-21.096 22.87 22.922 30.706h-5.867l-20.355-27.059-8.773 7.984v19.074h-4.877v-76.691h4.877v38.445l-.348 14.735h.25zm61.662 24.496c-7.785 0-13.855-2.397-18.209-7.196-4.355-4.796-6.533-11.516-6.533-20.159 0-8.543 2.104-15.386 6.311-20.528 4.207-5.141 9.875-7.714 17.004-7.714 6.311 0 11.289 2.203 14.938 6.606 3.646 4.403 5.469 10.384 5.469 17.939v3.944h-38.594c.064 7.359 1.785 12.979 5.15 16.855 3.369 3.879 8.191 5.815 14.465 5.815 3.057 0 5.746-.212 8.062-.64 2.316-.426 5.248-1.348 8.799-2.761v4.437c-3.023 1.315-5.816 2.21-8.383 2.686-2.561.477-5.391.716-8.479.716zm-1.428-51.259c-5.16 0-9.297 1.699-12.418 5.102-3.121 3.4-4.947 8.306-5.475 14.713h33.125c0-6.211-1.35-11.065-4.045-14.564-2.69-3.501-6.421-5.251-11.187-5.251zm52.25-4.339c2.27 0 4.701.231 7.295.691l-.934 4.683c-2.238-.559-4.555-.839-6.953-.839-4.568 0-8.312 1.939-11.24 5.816-2.92 3.878-4.381 8.774-4.381 14.688v29.573h-4.883v-53.576h4.143l.49 9.659h.346c2.201-3.94 4.549-6.71 7.051-8.305 2.496-1.592 5.52-2.39 9.066-2.39zm47.368 40.665c0 4.796-1.822 8.485-5.469 11.065-3.648 2.579-8.82 3.867-15.525 3.867-7.164 0-12.848-1.101-17.055-3.302v-5.274c5.387 2.695 11.072 4.043 17.055 4.043 5.289 0 9.307-.879 12.049-2.638 2.746-1.757 4.119-4.099 4.119-7.024 0-2.693-1.096-4.961-3.277-6.801-2.188-1.84-5.779-3.647-10.773-5.423-5.357-1.938-9.115-3.604-11.283-5.002-2.17-1.396-3.805-2.973-4.906-4.732-1.1-1.756-1.65-3.901-1.65-6.431 0-4.01 1.684-7.179 5.049-9.514 3.371-2.332 8.076-3.5 14.123-3.5 5.783 0 11.271 1.084 16.463 3.255l-1.826 4.436c-5.256-2.17-10.133-3.255-14.637-3.255-4.369 0-7.836.724-10.402 2.171-2.561 1.444-3.842 3.449-3.842 6.013 0 2.792.994 5.027 2.982 6.703s5.871 3.548 11.654 5.619c4.832 1.741 8.35 3.311 10.551 4.706 2.201 1.396 3.852 2.982 4.951 4.758 1.098 1.773 1.649 3.861 1.649 6.26z" fill="#666"/><path fill="#4285F4" d="M104.266 88.995h38.089v123.672h-38.089z"/><path fill="#00BFA5" d="M218.22 88.995h38.316v123.672h-38.316z"/><path fill="#1CE9B6" d="M218.446 212.667h38.09l-56.97-104.933h-38.099z"/><path fill="#4FC3F7" d="M142.355 212.667h-38.089l56.975-104.933h38.089z"/><path fill="#4285F4" d="M81.863 231.43v-160.758h41.69v-24.366h-56.479c-5.284 0-9.611 4.327-9.611 9.616v188.812c0 5.289 4.327 10.628 9.611 10.628h56.479v-23.932h-41.69z"/><path fill="#00BFA5" d="M278.934 231.43v-160.758h-41.69v-24.366h56.479c5.285 0 9.617 4.327 9.617 9.616v188.812c0 5.289-4.332 10.628-9.617 10.628h-56.479v-23.932h41.69z"/></svg>